<svg xmlns="http://www.w3.org/2000/svg">
    <defs>
        <symbol id="button" viewBox="0 0 64 64">
            <path fill-rule="evenodd" clip-rule="evenodd" d="M32 62C48.5685 62 62 48.5685 62 32C62 15.4315 48.5685 2 32 2C15.4315 2 2 15.4315 2 32C2 48.5685 15.4315 62 32 62ZM32 64C49.6731 64 64 49.6731 64 32C64 14.3269 49.6731 0 32 0C14.3269 0 0 14.3269 0 32C0 49.6731 14.3269 64 32 64ZM59 32C59 46.9117 46.9117 59 32 59C17.0883 59 5 46.9117 5 32C5 17.0883 17.0883 5 32 5C46.9117 5 59 17.0883 59 32ZM25.0607 27.9393C24.4749 27.3536 23.5251 27.3536 22.9393 27.9393C22.3536 28.5251 22.3536 29.4749 22.9393 30.0607L30.9393 38.0607C31.5251 38.6464 32.4749 38.6464 33.0607 38.0607L41.0607 30.0607C41.6464 29.4749 41.6464 28.5251 41.0607 27.9393C40.4749 27.3536 39.5251 27.3536 38.9393 27.9393L32 34.8787L25.0607 27.9393Z"/>
        </symbol>
        <symbol id="bar-s" viewBox="0 0 34 34">
            <mask id="mask0" mask-type="alpha" maskUnits="userSpaceOnUse" x="0" y="1" width="34" height="32">
                <path d="M0 14.9767C0 13.7308 0.580524 12.5561 1.5702 11.7993L14.5702 1.85808C16.0044 0.761324 17.9956 0.761325 19.4298 1.85808L32.4298 11.7993C33.4195 12.5561 34 13.7308 34 14.9767V19.0233C34 20.2692 33.4195 21.4439 32.4298 22.2007L19.4298 32.1419C17.9956 33.2387 16.0044 33.2387 14.5702 32.1419L1.5702 22.2007C0.580524 21.4439 0 20.2692 0 19.0233V14.9767Z" fill="#151311"/>
            </mask>
            <g mask="url(#mask0)">
                <g filter="url(#filter0_ii)">
                    <path d="M0 13.9883C0 13.3654 0.290262 12.778 0.7851 12.3996L15.7851 0.929041C16.5022 0.380661 17.4978 0.380662 18.2149 0.929041L33.2149 12.3996C33.7097 12.778 34 13.3654 34 13.9883V20.0117C34 20.6346 33.7097 21.222 33.2149 21.6004L18.2149 33.071C17.4978 33.6193 16.5022 33.6193 15.7851 33.071L0.785101 21.6004C0.290263 21.222 0 20.6346 0 20.0117V13.9883Z" fill="url(#paint0_radial)" fill-opacity="0.65"/>
                </g>
                <g filter="url(#filter1_iif)">
                    <path d="M34 20.0117V13L17 26V34L33.2149 21.6004C33.7097 21.222 34 20.6346 34 20.0117Z" fill="url(#paint1_radial)" fill-opacity="0.8"/>
                </g>
                <g filter="url(#filter2_if)">
                    <path d="M17 0L0 13L14.5702 24.1419C16.0044 25.2387 17.9956 25.2387 19.4298 24.1419L34 13L17 0Z" fill="url(#paint2_radial)" fill-opacity="0.7"/>
                </g>
            </g>
            <defs>
                <filter id="filter0_ii" x="-1" y="0.517754" width="36" height="33.9645" filterUnits="userSpaceOnUse" color-interpolation-filters="sRGB">
                    <feFlood flood-opacity="0" result="BackgroundImageFix"/>
                    <feBlend mode="normal" in="SourceGraphic" in2="BackgroundImageFix" result="shape"/>
                    <feColorMatrix in="SourceAlpha" type="matrix" values="0 0 0 0 0 0 0 0 0 0 0 0 0 0 0 0 0 0 127 0" result="hardAlpha"/>
                    <feOffset dx="1" dy="1"/>
                    <feGaussianBlur stdDeviation="8"/>
                    <feComposite in2="hardAlpha" operator="arithmetic" k2="-1" k3="1"/>
                    <feColorMatrix type="matrix" values="0 0 0 0 0.440542 0 0 0 0 0.400529 0 0 0 0 0.367792 0 0 0 0.2 0"/>
                    <feBlend mode="normal" in2="shape" result="effect1_innerShadow"/>
                    <feColorMatrix in="SourceAlpha" type="matrix" values="0 0 0 0 0 0 0 0 0 0 0 0 0 0 0 0 0 0 127 0" result="hardAlpha"/>
                    <feOffset dx="-1"/>
                    <feGaussianBlur stdDeviation="1"/>
                    <feComposite in2="hardAlpha" operator="arithmetic" k2="-1" k3="1"/>
                    <feColorMatrix type="matrix" values="0 0 0 0 1 0 0 0 0 1 0 0 0 0 1 0 0 0 0.2 0"/>
                    <feBlend mode="normal" in2="effect1_innerShadow" result="effect2_innerShadow"/>
                </filter>
                <filter id="filter1_iif" x="15" y="11" width="21" height="25" filterUnits="userSpaceOnUse" color-interpolation-filters="sRGB">
                    <feFlood flood-opacity="0" result="BackgroundImageFix"/>
                    <feBlend mode="normal" in="SourceGraphic" in2="BackgroundImageFix" result="shape"/>
                    <feColorMatrix in="SourceAlpha" type="matrix" values="0 0 0 0 0 0 0 0 0 0 0 0 0 0 0 0 0 0 127 0" result="hardAlpha"/>
                    <feOffset dx="2" dy="2"/>
                    <feGaussianBlur stdDeviation="8"/>
                    <feComposite in2="hardAlpha" operator="arithmetic" k2="-1" k3="1"/>
                    <feColorMatrix type="matrix" values="0 0 0 0 0.440542 0 0 0 0 0.400529 0 0 0 0 0.367792 0 0 0 0.2 0"/>
                    <feBlend mode="normal" in2="shape" result="effect1_innerShadow"/>
                    <feColorMatrix in="SourceAlpha" type="matrix" values="0 0 0 0 0 0 0 0 0 0 0 0 0 0 0 0 0 0 127 0" result="hardAlpha"/>
                    <feOffset dx="-1" dy="1"/>
                    <feGaussianBlur stdDeviation="0.5"/>
                    <feComposite in2="hardAlpha" operator="arithmetic" k2="-1" k3="1"/>
                    <feColorMatrix type="matrix" values="0 0 0 0 1 0 0 0 0 1 0 0 0 0 1 0 0 0 0.2 0"/>
                    <feBlend mode="normal" in2="effect1_innerShadow" result="effect2_innerShadow"/>
                    <feGaussianBlur stdDeviation="1" result="effect3_foregroundBlur"/>
                </filter>
                <filter id="filter2_if" x="-2" y="-1" width="37" height="26.9645" filterUnits="userSpaceOnUse" color-interpolation-filters="sRGB">
                    <feFlood flood-opacity="0" result="BackgroundImageFix"/>
                    <feBlend mode="normal" in="SourceGraphic" in2="BackgroundImageFix" result="shape"/>
                    <feColorMatrix in="SourceAlpha" type="matrix" values="0 0 0 0 0 0 0 0 0 0 0 0 0 0 0 0 0 0 127 0" result="hardAlpha"/>
                    <feOffset dx="-2"/>
                    <feGaussianBlur stdDeviation="1"/>
                    <feComposite in2="hardAlpha" operator="arithmetic" k2="-1" k3="1"/>
                    <feColorMatrix type="matrix" values="0 0 0 0 0.9272 0 0 0 0 0.91928 0 0 0 0 0.9128 0 0 0 0.15 0"/>
                    <feBlend mode="normal" in2="shape" result="effect1_innerShadow"/>
                    <feGaussianBlur stdDeviation="0.5" result="effect2_foregroundBlur"/>
                </filter>
                <radialGradient id="paint0_radial" cx="0" cy="0" r="1" gradientUnits="userSpaceOnUse" gradientTransform="translate(30.2818 26.6165) rotate(-156.928) scale(77.2877 1713.92)">
                    <stop stop-color="#131110"/>
                    <stop offset="1"/>
                </radialGradient>
                <radialGradient id="paint1_radial" cx="0" cy="0" r="1" gradientUnits="userSpaceOnUse" gradientTransform="translate(23.0802 22.3714) rotate(-101.873) scale(99.4275 2181.5)">
                    <stop offset="0.0001" stop-color="#3A3530"/>
                    <stop offset="1" stop-color="#49423D"/>
                </radialGradient>
                <radialGradient id="paint2_radial" cx="0" cy="0" r="1" gradientUnits="userSpaceOnUse" gradientTransform="translate(30.4998 18.9502) rotate(-163.167) scale(41.2679 899.814)">
                    <stop stop-color="#3E3934"/>
                    <stop offset="1" stop-color="#221F1C"/>
                </radialGradient>
            </defs>
        </symbol>
        <symbol id="bar-m" viewBox="0 0 34 41">
            <mask id="mask0" mask-type="alpha" maskUnits="userSpaceOnUse" x="0" y="0" width="34" height="40">
                <path opacity="0.95" d="M0 13.9767C0 12.7308 0.580524 11.5561 1.5702 10.7993L14.5702 0.858083C16.0044 -0.238676 17.9956 -0.238675 19.4298 0.858083L32.4298 10.7993C33.4195 11.5561 34 12.7308 34 13.9767V26.0233C34 27.2692 33.4195 28.4439 32.4298 29.2007L19.4298 39.1419C17.9956 40.2387 16.0044 40.2387 14.5702 39.1419L1.5702 29.2007C0.580524 28.4439 0 27.2692 0 26.0233V13.9767Z" fill="url(#paint0_radial)" fill-opacity="0.95"/>
            </mask>
            <g mask="url(#mask0)">
                <g filter="url(#filter0_ii)">
                    <path d="M0 13.9767C0 12.7308 0.580524 11.5561 1.5702 10.7993L14.5702 0.858083C16.0044 -0.238676 17.9956 -0.238675 19.4298 0.858083L32.4298 10.7993C33.4195 11.5561 34 12.7308 34 13.9767V26.0233C34 27.2692 33.4195 28.4439 32.4298 29.2007L19.4298 39.1419C17.9956 40.2387 16.0044 40.2387 14.5702 39.1419L1.5702 29.2007C0.580524 28.4439 0 27.2692 0 26.0233V13.9767Z" fill="url(#paint1_radial)" fill-opacity="0.9"/>
                </g>
                <g filter="url(#filter1_iif)">
                    <path d="M34 27.0117V12.9883C34 12.3654 33.7097 11.778 33.2149 11.3996L17 -1V41L33.2149 28.6004C33.7097 28.222 34 27.6346 34 27.0117Z" fill="url(#paint2_radial)" fill-opacity="0.9"/>
                </g>
                <g filter="url(#filter2_iif)">
                    <path d="M17 -1L0 12L14.5702 23.1419C16.0044 24.2387 17.9956 24.2387 19.4298 23.1419L34 12L17 -1Z" fill="url(#paint3_radial)" fill-opacity="0.9"/>
                </g>
            </g>
            <defs>
                <filter id="filter0_ii" x="-1" y="0.0355148" width="37" height="41.929" filterUnits="userSpaceOnUse" color-interpolation-filters="sRGB">
                    <feFlood flood-opacity="0" result="BackgroundImageFix"/>
                    <feBlend mode="normal" in="SourceGraphic" in2="BackgroundImageFix" result="shape"/>
                    <feColorMatrix in="SourceAlpha" type="matrix" values="0 0 0 0 0 0 0 0 0 0 0 0 0 0 0 0 0 0 127 0" result="hardAlpha"/>
                    <feOffset dx="2" dy="2"/>
                    <feGaussianBlur stdDeviation="5"/>
                    <feComposite in2="hardAlpha" operator="arithmetic" k2="-1" k3="1"/>
                    <feColorMatrix type="matrix" values="0 0 0 0 0.362929 0 0 0 0 0.455371 0 0 0 0 0.554189 0 0 0 0.6 0"/>
                    <feBlend mode="normal" in2="shape" result="effect1_innerShadow"/>
                    <feColorMatrix in="SourceAlpha" type="matrix" values="0 0 0 0 0 0 0 0 0 0 0 0 0 0 0 0 0 0 127 0" result="hardAlpha"/>
                    <feOffset dx="-1"/>
                    <feGaussianBlur stdDeviation="0.5"/>
                    <feComposite in2="hardAlpha" operator="arithmetic" k2="-1" k3="1"/>
                    <feColorMatrix type="matrix" values="0 0 0 0 1 0 0 0 0 1 0 0 0 0 1 0 0 0 0.2 0"/>
                    <feBlend mode="normal" in2="effect1_innerShadow" result="effect2_innerShadow"/>
                </filter>
                <filter id="filter1_iif" x="15" y="-3" width="21" height="46" filterUnits="userSpaceOnUse" color-interpolation-filters="sRGB">
                    <feFlood flood-opacity="0" result="BackgroundImageFix"/>
                    <feBlend mode="normal" in="SourceGraphic" in2="BackgroundImageFix" result="shape"/>
                    <feColorMatrix in="SourceAlpha" type="matrix" values="0 0 0 0 0 0 0 0 0 0 0 0 0 0 0 0 0 0 127 0" result="hardAlpha"/>
                    <feOffset dx="2" dy="2"/>
                    <feGaussianBlur stdDeviation="8"/>
                    <feComposite in2="hardAlpha" operator="arithmetic" k2="-1" k3="1"/>
                    <feColorMatrix type="matrix" values="0 0 0 0 0.362929 0 0 0 0 0.455371 0 0 0 0 0.554189 0 0 0 0.6 0"/>
                    <feBlend mode="normal" in2="shape" result="effect1_innerShadow"/>
                    <feColorMatrix in="SourceAlpha" type="matrix" values="0 0 0 0 0 0 0 0 0 0 0 0 0 0 0 0 0 0 127 0" result="hardAlpha"/>
                    <feOffset dx="-1" dy="1"/>
                    <feGaussianBlur stdDeviation="0.5"/>
                    <feComposite in2="hardAlpha" operator="arithmetic" k2="-1" k3="1"/>
                    <feColorMatrix type="matrix" values="0 0 0 0 1 0 0 0 0 1 0 0 0 0 1 0 0 0 0.2 0"/>
                    <feBlend mode="normal" in2="effect1_innerShadow" result="effect2_innerShadow"/>
                    <feGaussianBlur stdDeviation="1" result="effect3_foregroundBlur"/>
                </filter>
                <filter id="filter2_iif" x="-2" y="-2" width="38" height="27.9645" filterUnits="userSpaceOnUse" color-interpolation-filters="sRGB">
                    <feFlood flood-opacity="0" result="BackgroundImageFix"/>
                    <feBlend mode="normal" in="SourceGraphic" in2="BackgroundImageFix" result="shape"/>
                    <feColorMatrix in="SourceAlpha" type="matrix" values="0 0 0 0 0 0 0 0 0 0 0 0 0 0 0 0 0 0 127 0" result="hardAlpha"/>
                    <feOffset dx="2" dy="2"/>
                    <feGaussianBlur stdDeviation="8"/>
                    <feComposite in2="hardAlpha" operator="arithmetic" k2="-1" k3="1"/>
                    <feColorMatrix type="matrix" values="0 0 0 0 0.362929 0 0 0 0 0.455371 0 0 0 0 0.554189 0 0 0 0.6 0"/>
                    <feBlend mode="normal" in2="shape" result="effect1_innerShadow"/>
                    <feColorMatrix in="SourceAlpha" type="matrix" values="0 0 0 0 0 0 0 0 0 0 0 0 0 0 0 0 0 0 127 0" result="hardAlpha"/>
                    <feOffset dx="-2"/>
                    <feGaussianBlur stdDeviation="1"/>
                    <feComposite in2="hardAlpha" operator="arithmetic" k2="-1" k3="1"/>
                    <feColorMatrix type="matrix" values="0 0 0 0 1 0 0 0 0 1 0 0 0 0 1 0 0 0 0.2 0"/>
                    <feBlend mode="normal" in2="effect1_innerShadow" result="effect2_innerShadow"/>
                    <feGaussianBlur stdDeviation="0.5" result="effect3_foregroundBlur"/>
                </filter>
                <radialGradient id="paint0_radial" cx="0" cy="0" r="1" gradientUnits="userSpaceOnUse" gradientTransform="translate(25.3048 24.3353) rotate(-113.885) scale(82.2113 2670.94)">
                    <stop/>
                    <stop offset="0.0001" stop-color="#231600"/>
                    <stop offset="1" stop-color="#705C5E"/>
                </radialGradient>
                <radialGradient id="paint1_radial" cx="0" cy="0" r="1" gradientUnits="userSpaceOnUse" gradientTransform="translate(25.3048 24.3353) rotate(-113.885) scale(82.2113 2670.94)">
                    <stop/>
                    <stop offset="0.0001" stop-color="#231600"/>
                    <stop offset="1" stop-color="#705C5E"/>
                </radialGradient>
                <radialGradient id="paint2_radial" cx="0" cy="0" r="1" gradientUnits="userSpaceOnUse" gradientTransform="translate(37.2501 16.8307) rotate(-115.254) scale(83.8533 1990.08)">
                    <stop/>
                    <stop offset="0.0001" stop-color="#231600"/>
                    <stop offset="1" stop-color="#705C5E"/>
                </radialGradient>
                <radialGradient id="paint3_radial" cx="0" cy="0" r="1" gradientUnits="userSpaceOnUse" gradientTransform="translate(30.4998 17.9502) rotate(-157.423) scale(77.4885 1689.58)">
                    <stop/>
                    <stop offset="0.0001" stop-color="#231600"/>
                    <stop offset="1" stop-color="#705C5E"/>
                </radialGradient>
            </defs>
        </symbol>
        <symbol id="bar-l" viewBox="0 0 34 57">
            <mask id="mask0" mask-type="alpha" maskUnits="userSpaceOnUse" x="0" y="0" width="34" height="56">
                <path d="M0 13.9767C0 12.7308 0.580524 11.5561 1.5702 10.7993L14.5702 0.858083C16.0044 -0.238676 17.9956 -0.238675 19.4298 0.858083L32.4298 10.7993C33.4195 11.5561 34 12.7308 34 13.9767V42.0233C34 43.2692 33.4195 44.4439 32.4298 45.2007L19.4298 55.1419C17.9956 56.2387 16.0044 56.2387 14.5702 55.1419L1.5702 45.2007C0.580524 44.4439 0 43.2692 0 42.0233V13.9767Z" fill="url(#paint0_radial)" fill-opacity="0.95"/>
            </mask>
            <g mask="url(#mask0)">
                <g filter="url(#filter0_ii)">
                    <path d="M0 13.9767C0 12.7308 0.580524 11.5561 1.5702 10.7993L14.5702 0.858083C16.0044 -0.238676 17.9956 -0.238675 19.4298 0.858083L32.4298 10.7993C33.4195 11.5561 34 12.7308 34 13.9767V42.0233C34 43.2692 33.4195 44.4439 32.4298 45.2007L19.4298 55.1419C17.9956 56.2387 16.0044 56.2387 14.5702 55.1419L1.5702 45.2007C0.580524 44.4439 0 43.2692 0 42.0233V13.9767Z" fill="url(#paint1_radial)" fill-opacity="0.9"/>
                </g>
                <g filter="url(#filter1_dif)">
                    <path d="M34 43.0117V12.9883C34 12.3654 33.7097 11.778 33.2149 11.3996L17 -1V57L33.2149 44.6004C33.7097 44.222 34 43.6346 34 43.0117Z" fill="url(#paint2_radial)"/>
                </g>
                <g filter="url(#filter2_iif)">
                    <path d="M17 -1L0 12L14.5702 23.1419C16.0044 24.2387 17.9956 24.2387 19.4298 23.1419L34 12L17 -1Z" fill="url(#paint3_radial)" fill-opacity="0.8"/>
                </g>
            </g>
            <defs>
                <filter id="filter0_ii" x="-1" y="0.0355148" width="37" height="57.929" filterUnits="userSpaceOnUse" color-interpolation-filters="sRGB">
                    <feFlood flood-opacity="0" result="BackgroundImageFix"/>
                    <feBlend mode="normal" in="SourceGraphic" in2="BackgroundImageFix" result="shape"/>
                    <feColorMatrix in="SourceAlpha" type="matrix" values="0 0 0 0 0 0 0 0 0 0 0 0 0 0 0 0 0 0 127 0" result="hardAlpha"/>
                    <feOffset dx="2" dy="2"/>
                    <feGaussianBlur stdDeviation="5"/>
                    <feComposite in2="hardAlpha" operator="arithmetic" k2="-1" k3="1"/>
                    <feColorMatrix type="matrix" values="0 0 0 0 0.95 0 0 0 0 0.623 0 0 0 0 0.05 0 0 0 0.2 0"/>
                    <feBlend mode="normal" in2="shape" result="effect1_innerShadow"/>
                    <feColorMatrix in="SourceAlpha" type="matrix" values="0 0 0 0 0 0 0 0 0 0 0 0 0 0 0 0 0 0 127 0" result="hardAlpha"/>
                    <feOffset dx="-1" dy="1"/>
                    <feGaussianBlur stdDeviation="0.5"/>
                    <feComposite in2="hardAlpha" operator="arithmetic" k2="-1" k3="1"/>
                    <feColorMatrix type="matrix" values="0 0 0 0 1 0 0 0 0 1 0 0 0 0 1 0 0 0 0.2 0"/>
                    <feBlend mode="normal" in2="effect1_innerShadow" result="effect2_innerShadow"/>
                </filter>
                <filter id="filter1_dif" x="12" y="-6" width="27" height="71" filterUnits="userSpaceOnUse" color-interpolation-filters="sRGB">
                    <feFlood flood-opacity="0" result="BackgroundImageFix"/>
                    <feColorMatrix in="SourceAlpha" type="matrix" values="0 0 0 0 0 0 0 0 0 0 0 0 0 0 0 0 0 0 127 0"/>
                    <feOffset dy="4"/>
                    <feGaussianBlur stdDeviation="2"/>
                    <feColorMatrix type="matrix" values="0 0 0 0 0 0 0 0 0 0 0 0 0 0 0 0 0 0 1 0"/>
                    <feBlend mode="normal" in2="BackgroundImageFix" result="effect1_dropShadow"/>
                    <feBlend mode="normal" in="SourceGraphic" in2="effect1_dropShadow" result="shape"/>
                    <feColorMatrix in="SourceAlpha" type="matrix" values="0 0 0 0 0 0 0 0 0 0 0 0 0 0 0 0 0 0 127 0" result="hardAlpha"/>
                    <feOffset dx="-2" dy="-1"/>
                    <feGaussianBlur stdDeviation="0.5"/>
                    <feComposite in2="hardAlpha" operator="arithmetic" k2="-1" k3="1"/>
                    <feColorMatrix type="matrix" values="0 0 0 0 1 0 0 0 0 1 0 0 0 0 1 0 0 0 0.2 0"/>
                    <feBlend mode="normal" in2="shape" result="effect2_innerShadow"/>
                    <feGaussianBlur stdDeviation="2.5" result="effect3_foregroundBlur"/>
                </filter>
                <filter id="filter2_iif" x="-1" y="-2" width="37" height="27.9645" filterUnits="userSpaceOnUse" color-interpolation-filters="sRGB">
                    <feFlood flood-opacity="0" result="BackgroundImageFix"/>
                    <feBlend mode="normal" in="SourceGraphic" in2="BackgroundImageFix" result="shape"/>
                    <feColorMatrix in="SourceAlpha" type="matrix" values="0 0 0 0 0 0 0 0 0 0 0 0 0 0 0 0 0 0 127 0" result="hardAlpha"/>
                    <feOffset dx="2" dy="2"/>
                    <feGaussianBlur stdDeviation="8"/>
                    <feComposite in2="hardAlpha" operator="arithmetic" k2="-1" k3="1"/>
                    <feColorMatrix type="matrix" values="0 0 0 0 0.95 0 0 0 0 0.623 0 0 0 0 0.05 0 0 0 0.2 0"/>
                    <feBlend mode="normal" in2="shape" result="effect1_innerShadow"/>
                    <feColorMatrix in="SourceAlpha" type="matrix" values="0 0 0 0 0 0 0 0 0 0 0 0 0 0 0 0 0 0 127 0" result="hardAlpha"/>
                    <feOffset dx="-2"/>
                    <feGaussianBlur stdDeviation="0.5"/>
                    <feComposite in2="hardAlpha" operator="arithmetic" k2="-1" k3="1"/>
                    <feColorMatrix type="matrix" values="0 0 0 0 0.922292 0 0 0 0 0.60255 0 0 0 0 0.0485417 0 0 0 0.5 0"/>
                    <feBlend mode="normal" in2="effect1_innerShadow" result="effect2_innerShadow"/>
                    <feGaussianBlur stdDeviation="0.5" result="effect3_foregroundBlur"/>
                </filter>
                <radialGradient id="paint0_radial" cx="0" cy="0" r="1" gradientUnits="userSpaceOnUse" gradientTransform="translate(25.3053 42.989) rotate(-109.233) scale(70.4297 2348.99)">
                    <stop/>
                    <stop offset="0.0001" stop-color="#211602"/>
                    <stop offset="1" stop-color="#AC7109"/>
                </radialGradient>
                <radialGradient id="paint1_radial" cx="0" cy="0" r="1" gradientUnits="userSpaceOnUse" gradientTransform="translate(25.3053 42.989) rotate(-109.233) scale(70.4297 2348.99)">
                    <stop/>
                    <stop offset="0.0001" stop-color="#211602"/>
                    <stop offset="1" stop-color="#AC7109"/>
                </radialGradient>
                <radialGradient id="paint2_radial" cx="0" cy="0" r="1" gradientUnits="userSpaceOnUse" gradientTransform="translate(31.9667 47.8734) rotate(-106.704) scale(52.0707 812.895)">
                    <stop offset="0.0625" stop-color="#201502"/>
                    <stop offset="1" stop-color="#C7830A"/>
                </radialGradient>
                <radialGradient id="paint3_radial" cx="0" cy="0" r="1" gradientUnits="userSpaceOnUse" gradientTransform="translate(30.4998 17.9502) rotate(-157.423) scale(77.4885 1689.58)">
                    <stop/>
                    <stop offset="0.0001" stop-color="#211602"/>
                    <stop offset="1" stop-color="#AC7109"/>
                </radialGradient>
            </defs>
        </symbol>
        <symbol id="bar-xl" viewBox="0 0 34 73">
            <mask id="mask0" mask-type="alpha" maskUnits="userSpaceOnUse" x="0" y="0" width="34" height="72">
                <path d="M0 13.9767C0 12.7308 0.580524 11.5561 1.5702 10.7993L14.5702 0.858083C16.0044 -0.238676 17.9956 -0.238675 19.4298 0.858083L32.4298 10.7993C33.4195 11.5561 34 12.7308 34 13.9767V58.0233C34 59.2692 33.4195 60.4439 32.4298 61.2007L19.4298 71.1419C17.9956 72.2387 16.0044 72.2387 14.5702 71.1419L1.5702 61.2007C0.580524 60.4439 0 59.2692 0 58.0233V13.9767Z" fill="url(#paint0_radial)" fill-opacity="0.95"/>
            </mask>
            <g mask="url(#mask0)">
                <g filter="url(#filter0_ii)">
                    <path d="M0 13.9767C0 12.7308 0.580524 11.5561 1.5702 10.7993L14.5702 0.858083C16.0044 -0.238676 17.9956 -0.238675 19.4298 0.858083L32.4298 10.7993C33.4195 11.5561 34 12.7308 34 13.9767V58.0233C34 59.2692 33.4195 60.4439 32.4298 61.2007L19.4298 71.1419C17.9956 72.2387 16.0044 72.2387 14.5702 71.1419L1.5702 61.2007C0.580524 60.4439 0 59.2692 0 58.0233V13.9767Z" fill="url(#paint1_radial)"/>
                </g>
                <g filter="url(#filter1_dif)">
                    <path d="M34 59.0117V12.9883C34 12.3654 33.7097 11.778 33.2149 11.3996L17 -1V73L33.2149 60.6004C33.7097 60.222 34 59.6346 34 59.0117Z" fill="url(#paint2_radial)"/>
                </g>
                <g filter="url(#filter2_iif)">
                    <path d="M17 -1L0 12L14.5702 23.1419C16.0044 24.2387 17.9956 24.2387 19.4298 23.1419L34 12L17 -1Z" fill="url(#paint3_radial)" fill-opacity="0.8"/>
                </g>
            </g>
            <defs>
                <filter id="filter0_ii" x="-1" y="0.0355072" width="37" height="73.929" filterUnits="userSpaceOnUse" color-interpolation-filters="sRGB">
                    <feFlood flood-opacity="0" result="BackgroundImageFix"/>
                    <feBlend mode="normal" in="SourceGraphic" in2="BackgroundImageFix" result="shape"/>
                    <feColorMatrix in="SourceAlpha" type="matrix" values="0 0 0 0 0 0 0 0 0 0 0 0 0 0 0 0 0 0 127 0" result="hardAlpha"/>
                    <feOffset dx="2" dy="2"/>
                    <feGaussianBlur stdDeviation="5"/>
                    <feComposite in2="hardAlpha" operator="arithmetic" k2="-1" k3="1"/>
                    <feColorMatrix type="matrix" values="0 0 0 0 0.95 0 0 0 0 0.623 0 0 0 0 0.05 0 0 0 0.9 0"/>
                    <feBlend mode="normal" in2="shape" result="effect1_innerShadow"/>
                    <feColorMatrix in="SourceAlpha" type="matrix" values="0 0 0 0 0 0 0 0 0 0 0 0 0 0 0 0 0 0 127 0" result="hardAlpha"/>
                    <feOffset dx="-1" dy="1"/>
                    <feGaussianBlur stdDeviation="0.5"/>
                    <feComposite in2="hardAlpha" operator="arithmetic" k2="-1" k3="1"/>
                    <feColorMatrix type="matrix" values="0 0 0 0 1 0 0 0 0 1 0 0 0 0 1 0 0 0 0.2 0"/>
                    <feBlend mode="normal" in2="effect1_innerShadow" result="effect2_innerShadow"/>
                </filter>
                <filter id="filter1_dif" x="13" y="-5" width="25" height="86" filterUnits="userSpaceOnUse" color-interpolation-filters="sRGB">
                    <feFlood flood-opacity="0" result="BackgroundImageFix"/>
                    <feColorMatrix in="SourceAlpha" type="matrix" values="0 0 0 0 0 0 0 0 0 0 0 0 0 0 0 0 0 0 127 0"/>
                    <feOffset dy="4"/>
                    <feGaussianBlur stdDeviation="2"/>
                    <feColorMatrix type="matrix" values="0 0 0 0 0 0 0 0 0 0 0 0 0 0 0 0 0 0 1 0"/>
                    <feBlend mode="normal" in2="BackgroundImageFix" result="effect1_dropShadow"/>
                    <feBlend mode="normal" in="SourceGraphic" in2="effect1_dropShadow" result="shape"/>
                    <feColorMatrix in="SourceAlpha" type="matrix" values="0 0 0 0 0 0 0 0 0 0 0 0 0 0 0 0 0 0 127 0" result="hardAlpha"/>
                    <feOffset dx="-1" dy="-1"/>
                    <feGaussianBlur stdDeviation="0.5"/>
                    <feComposite in2="hardAlpha" operator="arithmetic" k2="-1" k3="1"/>
                    <feColorMatrix type="matrix" values="0 0 0 0 0.95 0 0 0 0 0.623 0 0 0 0 0.05 0 0 0 0.9 0"/>
                    <feBlend mode="normal" in2="shape" result="effect2_innerShadow"/>
                    <feGaussianBlur stdDeviation="2" result="effect3_foregroundBlur"/>
                </filter>
                <filter id="filter2_iif" x="-1" y="-2" width="37" height="27.9645" filterUnits="userSpaceOnUse" color-interpolation-filters="sRGB">
                    <feFlood flood-opacity="0" result="BackgroundImageFix"/>
                    <feBlend mode="normal" in="SourceGraphic" in2="BackgroundImageFix" result="shape"/>
                    <feColorMatrix in="SourceAlpha" type="matrix" values="0 0 0 0 0 0 0 0 0 0 0 0 0 0 0 0 0 0 127 0" result="hardAlpha"/>
                    <feOffset dx="2" dy="2"/>
                    <feGaussianBlur stdDeviation="15.5"/>
                    <feComposite in2="hardAlpha" operator="arithmetic" k2="-1" k3="1"/>
                    <feColorMatrix type="matrix" values="0 0 0 0 0.95 0 0 0 0 0.623 0 0 0 0 0.05 0 0 0 0.9 0"/>
                    <feBlend mode="normal" in2="shape" result="effect1_innerShadow"/>
                    <feColorMatrix in="SourceAlpha" type="matrix" values="0 0 0 0 0 0 0 0 0 0 0 0 0 0 0 0 0 0 127 0" result="hardAlpha"/>
                    <feOffset dx="-2"/>
                    <feGaussianBlur stdDeviation="0.5"/>
                    <feComposite in2="hardAlpha" operator="arithmetic" k2="-1" k3="1"/>
                    <feColorMatrix type="matrix" values="0 0 0 0 1 0 0 0 0 1 0 0 0 0 1 0 0 0 0.2 0"/>
                    <feBlend mode="normal" in2="effect1_innerShadow" result="effect2_innerShadow"/>
                    <feGaussianBlur stdDeviation="0.5" result="effect3_foregroundBlur"/>
                </filter>
                <radialGradient id="paint0_radial" cx="0" cy="0" r="1" gradientUnits="userSpaceOnUse" gradientTransform="translate(28.3313 64.8204) rotate(-102.092) scale(67.4131 846.864)">
                    <stop stop-color="#201502"/>
                    <stop offset="1" stop-color="#C7830A"/>
                </radialGradient>
                <radialGradient id="paint1_radial" cx="0" cy="0" r="1" gradientUnits="userSpaceOnUse" gradientTransform="translate(28.3313 64.8204) rotate(-102.092) scale(67.4131 846.864)">
                    <stop stop-color="#201502"/>
                    <stop offset="1" stop-color="#C7830A"/>
                </radialGradient>
                <radialGradient id="paint2_radial" cx="0" cy="0" r="1" gradientUnits="userSpaceOnUse" gradientTransform="translate(31.9667 61.3557) rotate(-100.534) scale(54.7003 683.353)">
                    <stop stop-color="#201502"/>
                    <stop offset="1" stop-color="#C7830A"/>
                </radialGradient>
                <radialGradient id="paint3_radial" cx="0" cy="0" r="1" gradientUnits="userSpaceOnUse" gradientTransform="translate(19.1537 23.663) rotate(-102.078) scale(61.741 1819.91)">
                    <stop stop-color="#201502"/>
                    <stop offset="1" stop-color="#C7830A"/>
                </radialGradient>
            </defs>
        </symbol>
    </defs>
</svg>
